<svg width="512" height="192" viewBox="0 0 512 192" xmlns="http://www.w3.org/2000/svg">
  <defs>
    <linearGradient id="logoGradient" x1="0%" y1="0%" x2="100%" y2="100%">
      <stop offset="0%" style="stop-color:#007BFF;stop-opacity:1" />
      <stop offset="100%" style="stop-color:#8A2BE2;stop-opacity:1" />
    </linearGradient>
  </defs>
  <g transform="translate(0, 0)">
    <rect width="192" height="192" rx="48" fill="#121212"/>
    <g transform="translate(48, 48) scale(0.5)">
      <path d="M64 0 C99.346 0 128 28.654 128 64 C128 99.346 99.346 128 64 128 C28.654 128 0 99.346 0 64 C0 28.654 28.654 0 64 0 Z M64 16 C37.49 16 16 37.49 16 64 C16 90.51 37.49 112 64 112 C90.51 112 112 90.51 112 64 C112 37.49 90.51 16 64 16 Z" fill="url(#logoGradient)"/>
      <path d="M56 48 L80 64 L56 80 Z" fill="#FFFFFF"/>
    </g>
  </g>
  <text x="352" y="110" text-anchor="middle" font-family="Roboto, Arial, sans-serif" font-size="60" font-weight="bold" fill="#FFFFFF">
    Let's Stream
  </text>
</svg>
